<mxfile host="app.diagrams.net" agent="Mozilla/5.0 (Windows NT 10.0; Win64; x64) AppleWebKit/537.36 (KHTML, like Gecko) Chrome/130.0.0.0 Safari/537.36" version="24.8.4">
  <diagram name="Страница — 1" id="0S1JIXBWdZlQG3bKPibP">
    <mxGraphModel dx="1631" dy="964" grid="1" gridSize="10" guides="1" tooltips="1" connect="1" arrows="1" fold="1" page="1" pageScale="1" pageWidth="827" pageHeight="1169" math="0" shadow="0">
      <root>
        <mxCell id="0" />
        <mxCell id="1" parent="0" />
        <mxCell id="1AuL-2awDhLLWzgHiO8z-2" value="Клиент" style="swimlane;fontStyle=0;childLayout=stackLayout;horizontal=1;startSize=30;horizontalStack=0;resizeParent=1;resizeParentMax=0;resizeLast=0;collapsible=1;marginBottom=0;whiteSpace=wrap;html=1;" vertex="1" parent="1">
          <mxGeometry x="350" y="750" width="140" height="120" as="geometry" />
        </mxCell>
        <mxCell id="1AuL-2awDhLLWzgHiO8z-3" value="Item 1" style="text;strokeColor=none;fillColor=none;align=left;verticalAlign=middle;spacingLeft=4;spacingRight=4;overflow=hidden;points=[[0,0.5],[1,0.5]];portConstraint=eastwest;rotatable=0;whiteSpace=wrap;html=1;" vertex="1" parent="1AuL-2awDhLLWzgHiO8z-2">
          <mxGeometry y="30" width="140" height="30" as="geometry" />
        </mxCell>
        <mxCell id="1AuL-2awDhLLWzgHiO8z-4" value="Item 2" style="text;strokeColor=none;fillColor=none;align=left;verticalAlign=middle;spacingLeft=4;spacingRight=4;overflow=hidden;points=[[0,0.5],[1,0.5]];portConstraint=eastwest;rotatable=0;whiteSpace=wrap;html=1;" vertex="1" parent="1AuL-2awDhLLWzgHiO8z-2">
          <mxGeometry y="60" width="140" height="30" as="geometry" />
        </mxCell>
        <mxCell id="1AuL-2awDhLLWzgHiO8z-5" value="Item 3" style="text;strokeColor=none;fillColor=none;align=left;verticalAlign=middle;spacingLeft=4;spacingRight=4;overflow=hidden;points=[[0,0.5],[1,0.5]];portConstraint=eastwest;rotatable=0;whiteSpace=wrap;html=1;" vertex="1" parent="1AuL-2awDhLLWzgHiO8z-2">
          <mxGeometry y="90" width="140" height="30" as="geometry" />
        </mxCell>
        <mxCell id="1AuL-2awDhLLWzgHiO8z-6" value="Менеджер" style="swimlane;fontStyle=0;childLayout=stackLayout;horizontal=1;startSize=30;horizontalStack=0;resizeParent=1;resizeParentMax=0;resizeLast=0;collapsible=1;marginBottom=0;whiteSpace=wrap;html=1;" vertex="1" parent="1">
          <mxGeometry x="650" y="750" width="140" height="120" as="geometry" />
        </mxCell>
        <mxCell id="1AuL-2awDhLLWzgHiO8z-7" value="Item 1" style="text;strokeColor=none;fillColor=none;align=left;verticalAlign=middle;spacingLeft=4;spacingRight=4;overflow=hidden;points=[[0,0.5],[1,0.5]];portConstraint=eastwest;rotatable=0;whiteSpace=wrap;html=1;" vertex="1" parent="1AuL-2awDhLLWzgHiO8z-6">
          <mxGeometry y="30" width="140" height="30" as="geometry" />
        </mxCell>
        <mxCell id="1AuL-2awDhLLWzgHiO8z-8" value="Item 2" style="text;strokeColor=none;fillColor=none;align=left;verticalAlign=middle;spacingLeft=4;spacingRight=4;overflow=hidden;points=[[0,0.5],[1,0.5]];portConstraint=eastwest;rotatable=0;whiteSpace=wrap;html=1;" vertex="1" parent="1AuL-2awDhLLWzgHiO8z-6">
          <mxGeometry y="60" width="140" height="30" as="geometry" />
        </mxCell>
        <mxCell id="1AuL-2awDhLLWzgHiO8z-9" value="Item 3" style="text;strokeColor=none;fillColor=none;align=left;verticalAlign=middle;spacingLeft=4;spacingRight=4;overflow=hidden;points=[[0,0.5],[1,0.5]];portConstraint=eastwest;rotatable=0;whiteSpace=wrap;html=1;" vertex="1" parent="1AuL-2awDhLLWzgHiO8z-6">
          <mxGeometry y="90" width="140" height="30" as="geometry" />
        </mxCell>
        <mxCell id="1AuL-2awDhLLWzgHiO8z-20" value="" style="endArrow=classic;html=1;rounded=0;entryX=0.993;entryY=0.733;entryDx=0;entryDy=0;entryPerimeter=0;exitX=0;exitY=0.5;exitDx=0;exitDy=0;" edge="1" parent="1" source="1AuL-2awDhLLWzgHiO8z-7" target="1AuL-2awDhLLWzgHiO8z-3">
          <mxGeometry relative="1" as="geometry">
            <mxPoint x="530" y="800" as="sourcePoint" />
            <mxPoint x="600" y="810" as="targetPoint" />
          </mxGeometry>
        </mxCell>
        <mxCell id="1AuL-2awDhLLWzgHiO8z-21" value="Работает" style="edgeLabel;resizable=0;html=1;;align=center;verticalAlign=middle;" connectable="0" vertex="1" parent="1AuL-2awDhLLWzgHiO8z-20">
          <mxGeometry relative="1" as="geometry" />
        </mxCell>
        <mxCell id="1AuL-2awDhLLWzgHiO8z-22" value="1" style="text;html=1;align=center;verticalAlign=middle;resizable=0;points=[];autosize=1;strokeColor=none;fillColor=none;" vertex="1" parent="1">
          <mxGeometry x="625" y="768" width="30" height="30" as="geometry" />
        </mxCell>
        <mxCell id="1AuL-2awDhLLWzgHiO8z-23" value="*" style="text;html=1;align=center;verticalAlign=middle;resizable=0;points=[];autosize=1;strokeColor=none;fillColor=none;" vertex="1" parent="1">
          <mxGeometry x="485" y="778" width="30" height="30" as="geometry" />
        </mxCell>
        <mxCell id="1AuL-2awDhLLWzgHiO8z-24" value="Платёж" style="swimlane;fontStyle=0;childLayout=stackLayout;horizontal=1;startSize=30;horizontalStack=0;resizeParent=1;resizeParentMax=0;resizeLast=0;collapsible=1;marginBottom=0;whiteSpace=wrap;html=1;" vertex="1" parent="1">
          <mxGeometry x="580" y="1140" width="140" height="120" as="geometry" />
        </mxCell>
        <mxCell id="1AuL-2awDhLLWzgHiO8z-25" value="Item 1" style="text;strokeColor=none;fillColor=none;align=left;verticalAlign=middle;spacingLeft=4;spacingRight=4;overflow=hidden;points=[[0,0.5],[1,0.5]];portConstraint=eastwest;rotatable=0;whiteSpace=wrap;html=1;" vertex="1" parent="1AuL-2awDhLLWzgHiO8z-24">
          <mxGeometry y="30" width="140" height="30" as="geometry" />
        </mxCell>
        <mxCell id="1AuL-2awDhLLWzgHiO8z-26" value="Item 2" style="text;strokeColor=none;fillColor=none;align=left;verticalAlign=middle;spacingLeft=4;spacingRight=4;overflow=hidden;points=[[0,0.5],[1,0.5]];portConstraint=eastwest;rotatable=0;whiteSpace=wrap;html=1;" vertex="1" parent="1AuL-2awDhLLWzgHiO8z-24">
          <mxGeometry y="60" width="140" height="30" as="geometry" />
        </mxCell>
        <mxCell id="1AuL-2awDhLLWzgHiO8z-27" value="Item 3" style="text;strokeColor=none;fillColor=none;align=left;verticalAlign=middle;spacingLeft=4;spacingRight=4;overflow=hidden;points=[[0,0.5],[1,0.5]];portConstraint=eastwest;rotatable=0;whiteSpace=wrap;html=1;" vertex="1" parent="1AuL-2awDhLLWzgHiO8z-24">
          <mxGeometry y="90" width="140" height="30" as="geometry" />
        </mxCell>
        <mxCell id="1AuL-2awDhLLWzgHiO8z-28" value="" style="endArrow=classic;html=1;rounded=0;entryX=0;entryY=0.5;entryDx=0;entryDy=0;exitX=1.028;exitY=-0.004;exitDx=0;exitDy=0;exitPerimeter=0;" edge="1" parent="1" source="1AuL-2awDhLLWzgHiO8z-5" target="1AuL-2awDhLLWzgHiO8z-25">
          <mxGeometry relative="1" as="geometry">
            <mxPoint x="660" y="805" as="sourcePoint" />
            <mxPoint x="499" y="812" as="targetPoint" />
          </mxGeometry>
        </mxCell>
        <mxCell id="1AuL-2awDhLLWzgHiO8z-29" value="Осуществляет" style="edgeLabel;resizable=0;html=1;;align=center;verticalAlign=middle;" connectable="0" vertex="1" parent="1AuL-2awDhLLWzgHiO8z-28">
          <mxGeometry relative="1" as="geometry" />
        </mxCell>
        <mxCell id="1AuL-2awDhLLWzgHiO8z-31" value="1" style="text;html=1;align=center;verticalAlign=middle;resizable=0;points=[];autosize=1;strokeColor=none;fillColor=none;" vertex="1" parent="1">
          <mxGeometry x="485" y="818" width="30" height="30" as="geometry" />
        </mxCell>
        <mxCell id="1AuL-2awDhLLWzgHiO8z-32" value="*" style="text;html=1;align=center;verticalAlign=middle;resizable=0;points=[];autosize=1;strokeColor=none;fillColor=none;" vertex="1" parent="1">
          <mxGeometry x="525" y="938" width="30" height="30" as="geometry" />
        </mxCell>
        <mxCell id="1AuL-2awDhLLWzgHiO8z-33" value="Номер телефона" style="swimlane;fontStyle=0;childLayout=stackLayout;horizontal=1;startSize=30;horizontalStack=0;resizeParent=1;resizeParentMax=0;resizeLast=0;collapsible=1;marginBottom=0;whiteSpace=wrap;html=1;" vertex="1" parent="1">
          <mxGeometry x="350" y="960" width="140" height="120" as="geometry" />
        </mxCell>
        <mxCell id="1AuL-2awDhLLWzgHiO8z-34" value="Item 1" style="text;strokeColor=none;fillColor=none;align=left;verticalAlign=middle;spacingLeft=4;spacingRight=4;overflow=hidden;points=[[0,0.5],[1,0.5]];portConstraint=eastwest;rotatable=0;whiteSpace=wrap;html=1;" vertex="1" parent="1AuL-2awDhLLWzgHiO8z-33">
          <mxGeometry y="30" width="140" height="30" as="geometry" />
        </mxCell>
        <mxCell id="1AuL-2awDhLLWzgHiO8z-35" value="Item 2" style="text;strokeColor=none;fillColor=none;align=left;verticalAlign=middle;spacingLeft=4;spacingRight=4;overflow=hidden;points=[[0,0.5],[1,0.5]];portConstraint=eastwest;rotatable=0;whiteSpace=wrap;html=1;" vertex="1" parent="1AuL-2awDhLLWzgHiO8z-33">
          <mxGeometry y="60" width="140" height="30" as="geometry" />
        </mxCell>
        <mxCell id="1AuL-2awDhLLWzgHiO8z-36" value="Item 3" style="text;strokeColor=none;fillColor=none;align=left;verticalAlign=middle;spacingLeft=4;spacingRight=4;overflow=hidden;points=[[0,0.5],[1,0.5]];portConstraint=eastwest;rotatable=0;whiteSpace=wrap;html=1;" vertex="1" parent="1AuL-2awDhLLWzgHiO8z-33">
          <mxGeometry y="90" width="140" height="30" as="geometry" />
        </mxCell>
        <mxCell id="1AuL-2awDhLLWzgHiO8z-37" value="" style="endArrow=classic;html=1;rounded=0;entryX=0.544;entryY=1.152;entryDx=0;entryDy=0;entryPerimeter=0;exitX=0.553;exitY=-0.005;exitDx=0;exitDy=0;exitPerimeter=0;" edge="1" parent="1" source="1AuL-2awDhLLWzgHiO8z-33" target="1AuL-2awDhLLWzgHiO8z-5">
          <mxGeometry relative="1" as="geometry">
            <mxPoint x="660" y="805" as="sourcePoint" />
            <mxPoint x="499" y="812" as="targetPoint" />
          </mxGeometry>
        </mxCell>
        <mxCell id="1AuL-2awDhLLWzgHiO8z-38" value="Принадлежит" style="edgeLabel;resizable=0;html=1;;align=center;verticalAlign=middle;" connectable="0" vertex="1" parent="1AuL-2awDhLLWzgHiO8z-37">
          <mxGeometry relative="1" as="geometry" />
        </mxCell>
        <mxCell id="1AuL-2awDhLLWzgHiO8z-39" value="1" style="text;html=1;align=center;verticalAlign=middle;resizable=0;points=[];autosize=1;strokeColor=none;fillColor=none;" vertex="1" parent="1">
          <mxGeometry x="425" y="938" width="30" height="30" as="geometry" />
        </mxCell>
        <mxCell id="1AuL-2awDhLLWzgHiO8z-40" value="1" style="text;html=1;align=center;verticalAlign=middle;resizable=0;points=[];autosize=1;strokeColor=none;fillColor=none;" vertex="1" parent="1">
          <mxGeometry x="425" y="868" width="30" height="30" as="geometry" />
        </mxCell>
        <mxCell id="1AuL-2awDhLLWzgHiO8z-41" value="Оператор" style="swimlane;fontStyle=0;childLayout=stackLayout;horizontal=1;startSize=30;horizontalStack=0;resizeParent=1;resizeParentMax=0;resizeLast=0;collapsible=1;marginBottom=0;whiteSpace=wrap;html=1;" vertex="1" parent="1">
          <mxGeometry x="30" y="960" width="140" height="120" as="geometry" />
        </mxCell>
        <mxCell id="1AuL-2awDhLLWzgHiO8z-42" value="Item 1" style="text;strokeColor=none;fillColor=none;align=left;verticalAlign=middle;spacingLeft=4;spacingRight=4;overflow=hidden;points=[[0,0.5],[1,0.5]];portConstraint=eastwest;rotatable=0;whiteSpace=wrap;html=1;" vertex="1" parent="1AuL-2awDhLLWzgHiO8z-41">
          <mxGeometry y="30" width="140" height="30" as="geometry" />
        </mxCell>
        <mxCell id="1AuL-2awDhLLWzgHiO8z-43" value="Item 2" style="text;strokeColor=none;fillColor=none;align=left;verticalAlign=middle;spacingLeft=4;spacingRight=4;overflow=hidden;points=[[0,0.5],[1,0.5]];portConstraint=eastwest;rotatable=0;whiteSpace=wrap;html=1;" vertex="1" parent="1AuL-2awDhLLWzgHiO8z-41">
          <mxGeometry y="60" width="140" height="30" as="geometry" />
        </mxCell>
        <mxCell id="1AuL-2awDhLLWzgHiO8z-44" value="Item 3" style="text;strokeColor=none;fillColor=none;align=left;verticalAlign=middle;spacingLeft=4;spacingRight=4;overflow=hidden;points=[[0,0.5],[1,0.5]];portConstraint=eastwest;rotatable=0;whiteSpace=wrap;html=1;" vertex="1" parent="1AuL-2awDhLLWzgHiO8z-41">
          <mxGeometry y="90" width="140" height="30" as="geometry" />
        </mxCell>
        <mxCell id="1AuL-2awDhLLWzgHiO8z-45" value="" style="endArrow=classic;html=1;rounded=0;exitX=1;exitY=0.25;exitDx=0;exitDy=0;entryX=0;entryY=0.5;entryDx=0;entryDy=0;" edge="1" parent="1" source="1AuL-2awDhLLWzgHiO8z-41" target="1AuL-2awDhLLWzgHiO8z-26">
          <mxGeometry relative="1" as="geometry">
            <mxPoint x="271" y="953" as="sourcePoint" />
            <mxPoint x="400" y="1140" as="targetPoint" />
            <Array as="points">
              <mxPoint x="280" y="1210" />
            </Array>
          </mxGeometry>
        </mxCell>
        <mxCell id="1AuL-2awDhLLWzgHiO8z-46" value="Работает" style="edgeLabel;resizable=0;html=1;;align=center;verticalAlign=middle;" connectable="0" vertex="1" parent="1AuL-2awDhLLWzgHiO8z-45">
          <mxGeometry relative="1" as="geometry" />
        </mxCell>
        <mxCell id="1AuL-2awDhLLWzgHiO8z-48" value="1" style="text;html=1;align=center;verticalAlign=middle;resizable=0;points=[];autosize=1;strokeColor=none;fillColor=none;" vertex="1" parent="1">
          <mxGeometry x="165" y="968" width="30" height="30" as="geometry" />
        </mxCell>
        <mxCell id="1AuL-2awDhLLWzgHiO8z-49" value="*" style="text;html=1;align=center;verticalAlign=middle;resizable=0;points=[];autosize=1;strokeColor=none;fillColor=none;" vertex="1" parent="1">
          <mxGeometry x="535" y="1158" width="30" height="30" as="geometry" />
        </mxCell>
        <mxCell id="1AuL-2awDhLLWzgHiO8z-50" value="" style="endArrow=classic;html=1;rounded=0;entryX=0.004;entryY=0.85;entryDx=0;entryDy=0;entryPerimeter=0;exitX=1;exitY=0.5;exitDx=0;exitDy=0;" edge="1" parent="1" source="1AuL-2awDhLLWzgHiO8z-43" target="1AuL-2awDhLLWzgHiO8z-8">
          <mxGeometry relative="1" as="geometry">
            <mxPoint x="437" y="969" as="sourcePoint" />
            <mxPoint x="436" y="885" as="targetPoint" />
          </mxGeometry>
        </mxCell>
        <mxCell id="1AuL-2awDhLLWzgHiO8z-51" value="Работает с" style="edgeLabel;resizable=0;html=1;;align=center;verticalAlign=middle;" connectable="0" vertex="1" parent="1AuL-2awDhLLWzgHiO8z-50">
          <mxGeometry relative="1" as="geometry" />
        </mxCell>
        <mxCell id="1AuL-2awDhLLWzgHiO8z-52" value="1" style="text;html=1;align=center;verticalAlign=middle;resizable=0;points=[];autosize=1;strokeColor=none;fillColor=none;" vertex="1" parent="1">
          <mxGeometry x="165" y="1008" width="30" height="30" as="geometry" />
        </mxCell>
        <mxCell id="1AuL-2awDhLLWzgHiO8z-53" value="*" style="text;html=1;align=center;verticalAlign=middle;resizable=0;points=[];autosize=1;strokeColor=none;fillColor=none;" vertex="1" parent="1">
          <mxGeometry x="615" y="818" width="30" height="30" as="geometry" />
        </mxCell>
      </root>
    </mxGraphModel>
  </diagram>
</mxfile>
